<svg width="1000" height="1000" viewBox="0 0 1000 1000" xmlns="http://www.w3.org/2000/svg"><defs/><path fill="#4f709c" transform="matrix(0.44201226828319706 0 0 0.44201226828319706 -18.968460294839144 10.107389772318173)" d="M 1159.33869921272 913.24304479636 C 1154.11369921272 909.30504479636 1149.91269921272 903.91504479636 1147.04069921272 897.86504479636 C 1144.17769921272 891.80204479636 1142.68169921272 885.05004479636 1142.67769921272 878.29504479636 C 1142.66069921272 871.54104479636 1144.15269921272 864.78204479636 1147.01669921272 858.71604479636 C 1149.88169921272 852.65804479636 1154.09769921272 847.27004479636 1159.33569921272 843.34604479636 C 1155.42069921272 848.57004479636 1152.28369921272 854.13004479636 1150.21069921272 860.03704479636 C 1148.12069921272 865.92804479636 1147.05869921272 872.10704479636 1147.04569921272 878.29404479636 C 1147.04069921272 884.48104479636 1148.09869921272 890.66704479636 1150.19169921272 896.56004479636 C 1152.25769921272 902.47504479636 1155.40869921272 908.03404479636 1159.33869921272 913.24304479636 Z"/><path fill="#4f709c" transform="matrix(0.44201226828319706 0 0 0.44201226828319706 -18.968460294839144 10.107389772318173)" d="M 1141.15969921272 931.41904479636 C 1133.40769921272 925.25104479636 1127.14869921272 917.04404479636 1122.90869921272 907.85804479636 C 1118.66769921272 898.66504479636 1116.45669921272 888.48104479636 1116.45469921272 878.29304479636 C 1116.43369921272 868.10604479636 1118.64169921272 857.91504479636 1122.88469921272 848.71904479636 C 1127.11869921272 839.52804479636 1133.38769921272 831.31804479636 1141.15869921272 825.16904479636 C 1135.01169921272 832.92004479636 1130.10169921272 841.35504479636 1126.82969921272 850.35204479636 C 1123.54269921272 859.33204479636 1121.86969921272 868.80904479636 1121.85369921272 878.29404479636 C 1121.84569921272 887.77904479636 1123.51469921272 897.26404479636 1126.80369921272 906.24604479636 C 1130.07169921272 915.25004479636 1134.99269921272 923.68704479636 1141.15969921272 931.41904479636 Z"/><path fill="#4f709c" transform="matrix(0.44201226828319706 0 0 0.44201226828319706 -18.968460294839144 10.107389772318173)" d="M 1122.98469921272 949.59704479636 C 1112.63869921272 941.26004479636 1104.28969921272 930.23604479636 1098.63669921272 917.91504479636 C 1092.97969921272 905.58504479636 1090.03269921272 891.94204479636 1090.03069921272 878.29604479636 C 1090.00369921272 864.65004479636 1092.94569921272 850.99804479636 1098.60369921272 838.66304479636 C 1104.25069921272 826.33504479636 1112.61369921272 815.30904479636 1122.98169921272 806.99404479636 C 1114.66869921272 817.33504479636 1108.02469921272 828.64704479636 1103.59669921272 840.73004479636 C 1099.14769921272 852.79104479636 1096.88169921272 865.53904479636 1096.86369921272 878.29504479636 C 1096.85369921272 891.05204479636 1099.11569921272 903.80904479636 1103.56869921272 915.87404479636 C 1107.99069921272 927.96504479636 1114.64769921272 939.27904479636 1122.98469921272 949.59704479636 Z"/><path fill="#4f709c" transform="matrix(0.44201226828319706 0 0 0.44201226828319706 -18.968460294839144 10.107389772318173)" d="M 1104.80569921272 967.77604479636 C 1091.73869921272 957.39404479636 1081.19169921272 943.57204479636 1074.04669921272 928.10004479636 C 1066.89869921272 912.61504479636 1063.17069921272 895.45804479636 1063.16469921272 878.29604479636 C 1063.12669921272 861.13404479636 1066.84369921272 843.96304479636 1073.99769921272 828.47204479636 C 1081.13369921272 812.98904479636 1091.70169921272 799.16204479636 1104.80269921272 788.81504479636 C 1094.45969921272 801.88104479636 1086.19669921272 816.08804479636 1080.68869921272 831.24104479636 C 1075.15769921272 846.36504479636 1072.33869921272 862.32404479636 1072.31269921272 878.29604479636 C 1072.29669921272 894.26904479636 1075.10569921272 910.24204479636 1080.64269921272 925.37104479636 C 1086.14369921272 940.53304479636 1094.42769921272 954.74404479636 1104.80569921272 967.77604479636 Z"/><path fill="#4f709c" transform="matrix(0.44201226828319706 0 0 0.44201226828319706 -18.968460294839144 10.107389772318173)" d="M 1229.23169921272 913.24304479636 C 1233.16069921272 908.03304479636 1236.31269921272 902.47504479636 1238.37769921272 896.56104479636 C 1240.47069921272 890.66704479636 1241.52869921272 884.48104479636 1241.52369921272 878.29504479636 C 1241.50969921272 872.10804479636 1240.44869921272 865.92804479636 1238.35969921272 860.03804479636 C 1236.28669921272 854.13104479636 1233.14769921272 848.57104479636 1229.23269921272 843.34704479636 C 1234.47169921272 847.27004479636 1238.68769921272 852.65904479636 1241.55169921272 858.71704479636 C 1244.41469921272 864.78204479636 1245.90869921272 871.54204479636 1245.89069921272 878.29604479636 C 1245.88869921272 885.05104479636 1244.39169921272 891.80304479636 1241.52969921272 897.86604479636 C 1238.65769921272 903.91604479636 1234.45669921272 909.30504479636 1229.23169921272 913.24304479636 Z"/><path fill="#4f709c" transform="matrix(0.44201226828319706 0 0 0.44201226828319706 -18.968460294839144 10.107389772318173)" d="M 1247.41069921272 931.41904479636 C 1253.57669921272 923.68704479636 1258.49869921272 915.25004479636 1261.76469921272 906.24704479636 C 1265.05469921272 897.26504479636 1266.72469921272 887.78004479636 1266.71469921272 878.29504479636 C 1266.69869921272 868.81004479636 1265.02669921272 859.33304479636 1261.73769921272 850.35304479636 C 1258.46669921272 841.35604479636 1253.55569921272 832.92104479636 1247.40969921272 825.17004479636 C 1255.18069921272 831.31904479636 1261.44969921272 839.52904479636 1265.68369921272 848.72004479636 C 1269.92669921272 857.91604479636 1272.13369921272 868.10804479636 1272.11369921272 878.29404479636 C 1272.11169921272 888.48204479636 1269.90169921272 898.66604479636 1265.66069921272 907.85904479636 C 1261.42169921272 917.04404479636 1255.16369921272 925.25104479636 1247.41069921272 931.41904479636 Z"/><path fill="#4f709c" transform="matrix(0.44201226828319706 0 0 0.44201226828319706 -18.968460294839144 10.107389772318173)" d="M 1265.58569921272 949.59704479636 C 1273.92269921272 939.27904479636 1280.57969921272 927.96504479636 1285.00269921272 915.87404479636 C 1289.45469921272 903.81004479636 1291.71569921272 891.05304479636 1291.70669921272 878.29504479636 C 1291.68769921272 865.53804479636 1289.42269921272 852.79004479636 1284.97369921272 840.73004479636 C 1280.54469921272 828.64704479636 1273.90169921272 817.33504479636 1265.58869921272 806.99404479636 C 1275.95669921272 815.30904479636 1284.32069921272 826.33604479636 1289.96669921272 838.66404479636 C 1295.62669921272 850.99804479636 1298.56769921272 864.65004479636 1298.53969921272 878.29604479636 C 1298.53669921272 891.94204479636 1295.59069921272 905.58504479636 1289.93369921272 917.91504479636 C 1284.27969921272 930.23604479636 1275.93069921272 941.25904479636 1265.58569921272 949.59704479636 Z"/><path fill="#4f709c" transform="matrix(0.44201226828319706 0 0 0.44201226828319706 -18.968460294839144 10.107389772318173)" d="M 1283.76269921272 967.77604479636 C 1294.14169921272 954.74504479636 1302.42569921272 940.53304479636 1307.92569921272 925.37104479636 C 1313.46169921272 910.24204479636 1316.27169921272 894.26904479636 1316.25569921272 878.29604479636 C 1316.22969921272 862.32404479636 1313.41069921272 846.36504479636 1307.87969921272 831.24104479636 C 1302.37269921272 816.08904479636 1294.10969921272 801.88104479636 1283.76669921272 788.81504479636 C 1296.86869921272 799.16204479636 1307.43569921272 812.98804479636 1314.57269921272 828.47204479636 C 1321.72669921272 843.96204479636 1325.44269921272 861.13404479636 1325.40369921272 878.29604479636 C 1325.39869921272 895.45804479636 1321.67069921272 912.61504479636 1314.52269921272 928.10004479636 C 1307.37869921272 943.57204479636 1296.83069921272 957.39404479636 1283.76269921272 967.77604479636 Z"/><path fill="#213555" transform="matrix(0.44201226828319706 0 0 0.44201226828319706 -18.968460294839144 10.107389772318173)" d="M 1216.64669921272 878.29404479636 C 1216.64669921272 890.64704479636 1206.63469921272 900.66204479636 1194.28469921272 900.66204479636 C 1181.93169921272 900.66204479636 1171.92069921272 890.64704479636 1171.92069921272 878.29404479636 C 1171.92069921272 865.94504479636 1181.93269921272 855.93304479636 1194.28469921272 855.93304479636 C 1206.63569921272 855.93204479636 1216.64669921272 865.94504479636 1216.64669921272 878.29404479636 Z"/><path fill="#213555" transform="matrix(0.44201226828319706 0 0 0.44201226828319706 -18.968460294839144 10.107389772318173)" d="M 1354.35169921272 939.71304479636 C 1316.87469921272 975.35304479636 1281.08169921272 1005.07504479636 1247.41569921272 1029.63004479636 L 1194.28369921272 878.29304479636 L 1128.18369921272 1066.56704479636 L 1114.07569921272 1106.75304479636 C 1096.21169921272 1114.13304479636 1079.61869921272 1119.64604479636 1064.44769921272 1123.50904479636 C 1035.39569921272 1130.90604479636 1011.54669921272 1133.59904479636 993.85669921272 1134.28404479636 C 1000.79969921272 1147.82904479636 1010.40069921272 1161.01904479636 1022.90269921272 1169.26104479636 C 1193.35769921272 1143.03404479636 1354.35169921272 939.71304479636 1354.35169921272 939.71304479636 Z"/><path fill="#4f709c" transform="matrix(0.44201226828319706 0 0 0.44201226828319706 -18.968460294839144 10.107389772318173)" d="M 1046.19869921272 1192.61004479636 C 1057.57569921272 1197.58804479636 1069.46069921272 1199.57704479636 1081.64469921272 1199.12704479636 L 1062.08469921272 1254.84404479636 L 1194.28469921272 1154.43204479636 L 1326.48669921272 1254.84404479636 L 1262.79969921272 1073.44104479636 C 1306.02869921272 1023.11604479636 1335.78869921272 976.84504479636 1335.78869921272 976.84504479636 C 1147.32869921272 1181.61704479636 1046.19869921272 1192.61004479636 1046.19869921272 1192.61004479636 Z"/><path id="text" fill="#213555" transform="matrix(0.5962638744481231 0 0 0.5962638744481231 -2.683187435016554 300.0083686603707)" d="M 323.23834821429 551.54183626607 C 323.23834821429 553.94808626607 322.93366071429 556.11214876607 322.32428571429 558.03402376607 C 321.71491071429 559.95589876607 320.91022321429 561.65121126607 319.91022321429 563.11996126607 C 318.91022321429 564.58871126607 317.73834821429 565.83871126607 316.39459821429 566.86996126607 C 315.05084821429 567.90121126607 313.66022321429 568.74496126607 312.22272321429 569.40121126607 C 310.78522321429 570.05746126607 309.32428571429 570.54183626607 307.83991071429 570.85433626607 C 306.35553571429 571.16683626607 304.95709821429 571.32308626607 303.64459821429 571.32308626607 L 256.62897321429 571.32308626607 L 256.62897321429 559.13558626607 L 303.64459821429 559.13558626607 C 305.98834821429 559.13558626607 307.80866071429 558.44808626607 309.10553571429 557.07308626607 C 310.40241071429 555.69808626607 311.05084821429 553.85433626607 311.05084821429 551.54183626607 C 311.05084821429 550.41683626607 310.87897321429 549.38558626607 310.53522321429 548.44808626607 C 310.19147321429 547.51058626607 309.69928571429 546.69808626607 309.05866071429 546.01058626607 C 308.41803571429 545.32308626607 307.63678571429 544.79183626607 306.71491071429 544.41683626607 C 305.79303571429 544.04183626607 304.76959821429 543.85433626607 303.64459821429 543.85433626607 L 275.61334821429 543.85433626607 C 273.64459821429 543.85433626607 271.51959821429 543.50277376607 269.23834821429 542.79964876607 C 266.95709821429 542.09652376607 264.83991071429 540.96371126607 262.88678571429 539.40121126607 C 260.93366071429 537.83871126607 259.30866071429 535.79183626607 258.01178571429 533.26058626607 C 256.71491071429 530.72933626607 256.06647321429 527.63558626607 256.06647321429 523.97933626607 C 256.06647321429 520.32308626607 256.71491071429 517.23714876607 258.01178571429 514.72152376607 C 259.30866071429 512.20589876607 260.93366071429 510.15902376607 262.88678571429 508.58089876607 C 264.83991071429 507.00277376607 266.95709821429 505.86214876607 269.23834821429 505.15902376607 C 271.51959821429 504.45589876607 273.64459821429 504.10433626607 275.61334821429 504.10433626607 L 317.09772321429 504.10433626607 L 317.09772321429 516.29183626607 L 275.61334821429 516.29183626607 C 273.30084821429 516.29183626607 271.49616071429 516.99496126607 270.19928571429 518.40121126607 C 268.90241071429 519.80746126607 268.25397321429 521.66683626607 268.25397321429 523.97933626607 C 268.25397321429 526.32308626607 268.90241071429 528.17464876607 270.19928571429 529.53402376607 C 271.49616071429 530.89339876607 273.30084821429 531.57308626607 275.61334821429 531.57308626607 L 303.64459821429 531.57308626607 L 303.73834821429 531.57308626607 C 305.05084821429 531.60433626607 306.44147321429 531.78402376607 307.91022321429 532.11214876607 C 309.37897321429 532.44027376607 310.83991071429 532.94808626607 312.29303571429 533.63558626607 C 313.74616071429 534.32308626607 315.12897321429 535.19027376607 316.44147321429 536.23714876607 C 317.75397321429 537.28402376607 318.91803571429 538.54183626607 319.93366071429 540.01058626607 C 320.94928571429 541.47933626607 321.75397321429 543.16683626607 322.34772321429 545.07308626607 C 322.94147321429 546.97933626607 323.23834821429 549.13558626607 323.23834821429 551.54183626607 Z M 419.27022321429 544.13558626607 C 419.27022321429 548.22933626607 418.56709821429 551.99496126607 417.16084821429 555.43246126607 C 415.75459821429 558.86996126607 413.80147321429 561.83871126607 411.30147321429 564.33871126607 C 408.80147321429 566.83871126607 405.84053571429 568.78402376607 402.41866071429 570.17464876607 C 398.99678571429 571.56527376607 395.27022321429 572.26058626607 391.23897321429 572.26058626607 L 374.73897321429 572.26058626607 C 370.70772321429 572.26058626607 366.97334821429 571.56527376607 363.53584821429 570.17464876607 C 360.09834821429 568.78402376607 357.12959821429 566.83871126607 354.62959821429 564.33871126607 C 352.12959821429 561.83871126607 350.16866071429 558.86996126607 348.74678571429 555.43246126607 C 347.32491071429 551.99496126607 346.61397321429 548.22933626607 346.61397321429 544.13558626607 L 346.61397321429 531.29183626607 C 346.61397321429 527.22933626607 347.32491071429 523.47152376607 348.74678571429 520.01839876607 C 350.16866071429 516.56527376607 352.12959821429 513.59652376607 354.62959821429 511.11214876607 C 357.12959821429 508.62777376607 360.09834821429 506.68246126607 363.53584821429 505.27621126607 C 366.97334821429 503.86996126607 370.70772321429 503.16683626607 374.73897321429 503.16683626607 L 391.23897321429 503.16683626607 C 395.27022321429 503.16683626607 398.99678571429 503.86996126607 402.41866071429 505.27621126607 C 405.84053571429 506.68246126607 408.80147321429 508.62777376607 411.30147321429 511.11214876607 C 413.80147321429 513.59652376607 415.75459821429 516.56527376607 417.16084821429 520.01839876607 C 418.56709821429 523.47152376607 419.27022321429 527.22933626607 419.27022321429 531.29183626607 L 419.27022321429 544.13558626607 Z M 407.08272321429 531.29183626607 C 407.08272321429 528.88558626607 406.69991071429 526.70589876607 405.93428571429 524.75277376607 C 405.16866071429 522.79964876607 404.09053571429 521.12777376607 402.69991071429 519.73714876607 C 401.30928571429 518.34652376607 399.63741071429 517.26839876607 397.68428571429 516.50277376607 C 395.73116071429 515.73714876607 393.58272321429 515.35433626607 391.23897321429 515.35433626607 L 374.73897321429 515.35433626607 C 372.36397321429 515.35433626607 370.19991071429 515.73714876607 368.24678571429 516.50277376607 C 366.29366071429 517.26839876607 364.61397321429 518.34652376607 363.20772321429 519.73714876607 C 361.80147321429 521.12777376607 360.71553571429 522.79964876607 359.94991071429 524.75277376607 C 359.18428571429 526.70589876607 358.80147321429 528.88558626607 358.80147321429 531.29183626607 L 358.80147321429 544.13558626607 C 358.80147321429 546.54183626607 359.18428571429 548.72152376607 359.94991071429 550.67464876607 C 360.71553571429 552.62777376607 361.80147321429 554.29964876607 363.20772321429 555.69027376607 C 364.61397321429 557.08089876607 366.29366071429 558.15902376607 368.24678571429 558.92464876607 C 370.19991071429 559.69027376607 372.36397321429 560.07308626607 374.73897321429 560.07308626607 L 391.14522321429 560.07308626607 C 393.52022321429 560.07308626607 395.68428571429 559.69027376607 397.63741071429 558.92464876607 C 399.59053571429 558.15902376607 401.27022321429 557.08089876607 402.67647321429 555.69027376607 C 404.08272321429 554.29964876607 405.16866071429 552.62777376607 405.93428571429 550.67464876607 C 406.69991071429 548.72152376607 407.08272321429 546.54183626607 407.08272321429 544.13558626607 L 407.08272321429 531.29183626607 Z M 508.41147321429 571.32308626607 L 452.81772321429 571.32308626607 C 451.94272321429 571.32308626607 451.13022321429 571.16683626607 450.38022321429 570.85433626607 C 449.63022321429 570.54183626607 448.98178571429 570.11214876607 448.43491071429 569.56527376607 C 447.88803571429 569.01839876607 447.45834821429 568.36996126607 447.14584821429 567.61996126607 C 446.83334821429 566.86996126607 446.67709821429 566.05746126607 446.67709821429 565.18246126607 L 446.67709821429 504.10433626607 L 458.86459821429 504.10433626607 L 458.86459821429 559.13558626607 L 508.41147321429 559.13558626607 L 508.41147321429 571.32308626607 Z M 595.02147321429 565.18246126607 C 595.02147321429 566.05746126607 594.86522321429 566.86996126607 594.55272321429 567.61996126607 C 594.24022321429 568.36996126607 593.80272321429 569.01839876607 593.24022321429 569.56527376607 C 592.67772321429 570.11214876607 592.02147321429 570.54183626607 591.27147321429 570.85433626607 C 590.52147321429 571.16683626607 589.72459821429 571.32308626607 588.88084821429 571.32308626607 L 561.41209821429 571.32308626607 C 558.81834821429 571.32308626607 556.19334821429 571.04183626607 553.53709821429 570.47933626607 C 550.88084821429 569.91683626607 548.31053571429 569.04964876607 545.82616071429 567.87777376607 C 543.34178571429 566.70589876607 541.00584821429 565.21371126607 538.81834821429 563.40121126607 C 536.63084821429 561.58871126607 534.71678571429 559.44027376607 533.07616071429 556.95589876607 C 531.43553571429 554.47152376607 530.14647321429 551.62777376607 529.20897321429 548.42464876607 C 528.27147321429 545.22152376607 527.80272321429 541.65121126607 527.80272321429 537.71371126607 L 527.80272321429 504.10433626607 L 539.99022321429 504.10433626607 L 539.99022321429 537.71371126607 C 539.99022321429 541.15121126607 540.46678571429 544.05746126607 541.41991071429 546.43246126607 C 542.37303571429 548.80746126607 543.58397321429 550.79183626607 545.05272321429 552.38558626607 C 546.52147321429 553.97933626607 548.13084821429 555.22933626607 549.88084821429 556.13558626607 C 551.63084821429 557.04183626607 553.29491071429 557.71371126607 554.87303571429 558.15121126607 C 556.45116071429 558.58871126607 557.84178571429 558.86214876607 559.04491071429 558.97152376607 C 560.24803571429 559.08089876607 561.03709821429 559.13558626607 561.41209821429 559.13558626607 L 582.83397321429 559.13558626607 L 582.83397321429 504.10433626607 L 595.02147321429 504.10433626607 L 595.02147321429 565.18246126607 Z M 684.72522321429 571.32308626607 L 640.75647321429 571.32308626607 C 639.63147321429 571.32308626607 638.42053571429 571.19027376607 637.12366071429 570.92464876607 C 635.82678571429 570.65902376607 634.54553571429 570.24496126607 633.27991071429 569.68246126607 C 632.01428571429 569.11996126607 630.80334821429 568.39339876607 629.64709821429 567.50277376607 C 628.49084821429 566.61214876607 627.46741071429 565.53402376607 626.57678571429 564.26839876607 C 625.68616071429 563.00277376607 624.97522321429 561.53402376607 624.44397321429 559.86214876607 C 623.91272321429 558.19027376607 623.64709821429 556.30746126607 623.64709821429 554.21371126607 L 623.64709821429 521.21371126607 C 623.64709821429 520.08871126607 623.77991071429 518.87777376607 624.04553571429 517.58089876607 C 624.31116071429 516.28402376607 624.72522321429 515.00277376607 625.28772321429 513.73714876607 C 625.85022321429 512.47152376607 626.58459821429 511.26058626607 627.49084821429 510.10433626607 C 628.39709821429 508.94808626607 629.48303571429 507.92464876607 630.74866071429 507.03402376607 C 632.01428571429 506.14339876607 633.47522321429 505.43246126607 635.13147321429 504.90121126607 C 636.78772321429 504.36996126607 638.66272321429 504.10433626607 640.75647321429 504.10433626607 L 684.72522321429 504.10433626607 L 684.72522321429 516.29183626607 L 640.75647321429 516.29183626607 C 639.16272321429 516.29183626607 637.94397321429 516.71371126607 637.10022321429 517.55746126607 C 636.25647321429 518.40121126607 635.83459821429 519.65121126607 635.83459821429 521.30746126607 L 635.83459821429 554.21371126607 C 635.83459821429 555.77621126607 636.26428571429 556.98714876607 637.12366071429 557.84652376607 C 637.98303571429 558.70589876607 639.19397321429 559.13558626607 640.75647321429 559.13558626607 L 684.72522321429 559.13558626607 L 684.72522321429 571.32308626607 Z M 723.89772321429 571.32308626607 L 711.71022321429 571.32308626607 L 711.71022321429 504.10433626607 L 723.89772321429 504.10433626607 L 723.89772321429 571.32308626607 Z M 824.05459821429 544.13558626607 C 824.05459821429 548.22933626607 823.35147321429 551.99496126607 821.94522321429 555.43246126607 C 820.53897321429 558.86996126607 818.58584821429 561.83871126607 816.08584821429 564.33871126607 C 813.58584821429 566.83871126607 810.62491071429 568.78402376607 807.20303571429 570.17464876607 C 803.78116071429 571.56527376607 800.05459821429 572.26058626607 796.02334821429 572.26058626607 L 779.52334821429 572.26058626607 C 775.49209821429 572.26058626607 771.75772321429 571.56527376607 768.32022321429 570.17464876607 C 764.88272321429 568.78402376607 761.91397321429 566.83871126607 759.41397321429 564.33871126607 C 756.91397321429 561.83871126607 754.95303571429 558.86996126607 753.53116071429 555.43246126607 C 752.10928571429 551.99496126607 751.39834821429 548.22933626607 751.39834821429 544.13558626607 L 751.39834821429 531.29183626607 C 751.39834821429 527.22933626607 752.10928571429 523.47152376607 753.53116071429 520.01839876607 C 754.95303571429 516.56527376607 756.91397321429 513.59652376607 759.41397321429 511.11214876607 C 761.91397321429 508.62777376607 764.88272321429 506.68246126607 768.32022321429 505.27621126607 C 771.75772321429 503.86996126607 775.49209821429 503.16683626607 779.52334821429 503.16683626607 L 796.02334821429 503.16683626607 C 800.05459821429 503.16683626607 803.78116071429 503.86996126607 807.20303571429 505.27621126607 C 810.62491071429 506.68246126607 813.58584821429 508.62777376607 816.08584821429 511.11214876607 C 818.58584821429 513.59652376607 820.53897321429 516.56527376607 821.94522321429 520.01839876607 C 823.35147321429 523.47152376607 824.05459821429 527.22933626607 824.05459821429 531.29183626607 L 824.05459821429 544.13558626607 Z M 811.86709821429 531.29183626607 C 811.86709821429 528.88558626607 811.48428571429 526.70589876607 810.71866071429 524.75277376607 C 809.95303571429 522.79964876607 808.87491071429 521.12777376607 807.48428571429 519.73714876607 C 806.09366071429 518.34652376607 804.42178571429 517.26839876607 802.46866071429 516.50277376607 C 800.51553571429 515.73714876607 798.36709821429 515.35433626607 796.02334821429 515.35433626607 L 779.52334821429 515.35433626607 C 777.14834821429 515.35433626607 774.98428571429 515.73714876607 773.03116071429 516.50277376607 C 771.07803571429 517.26839876607 769.39834821429 518.34652376607 767.99209821429 519.73714876607 C 766.58584821429 521.12777376607 765.49991071429 522.79964876607 764.73428571429 524.75277376607 C 763.96866071429 526.70589876607 763.58584821429 528.88558626607 763.58584821429 531.29183626607 L 763.58584821429 544.13558626607 C 763.58584821429 546.54183626607 763.96866071429 548.72152376607 764.73428571429 550.67464876607 C 765.49991071429 552.62777376607 766.58584821429 554.29964876607 767.99209821429 555.69027376607 C 769.39834821429 557.08089876607 771.07803571429 558.15902376607 773.03116071429 558.92464876607 C 774.98428571429 559.69027376607 777.14834821429 560.07308626607 779.52334821429 560.07308626607 L 795.92959821429 560.07308626607 C 798.30459821429 560.07308626607 800.46866071429 559.69027376607 802.42178571429 558.92464876607 C 804.37491071429 558.15902376607 806.05459821429 557.08089876607 807.46084821429 555.69027376607 C 808.86709821429 554.29964876607 809.95303571429 552.62777376607 810.71866071429 550.67464876607 C 811.48428571429 548.72152376607 811.86709821429 546.54183626607 811.86709821429 544.13558626607 L 811.86709821429 531.29183626607 Z M 918.63334821429 566.11996126607 C 918.63334821429 566.99496126607 918.46928571429 567.80746126607 918.14116071429 568.55746126607 C 917.81303571429 569.30746126607 917.37553571429 569.95589876607 916.82866071429 570.50277376607 C 916.28178571429 571.04964876607 915.63334821429 571.47933626607 914.88334821429 571.79183626607 C 914.13334821429 572.10433626607 913.33647321429 572.26058626607 912.49272321429 572.26058626607 C 911.74272321429 572.26058626607 910.98491071429 572.11996126607 910.21928571429 571.83871126607 C 909.45366071429 571.55746126607 908.77397321429 571.10433626607 908.18022321429 570.47933626607 L 863.64897321429 523.97933626607 L 863.64897321429 571.32308626607 L 851.46147321429 571.32308626607 L 851.46147321429 509.30746126607 C 851.46147321429 508.05746126607 851.81303571429 506.92464876607 852.51616071429 505.90902376607 C 853.21928571429 504.89339876607 854.11772321429 504.13558626607 855.21147321429 503.63558626607 C 856.36772321429 503.16683626607 857.55522321429 503.04964876607 858.77397321429 503.28402376607 C 859.99272321429 503.51839876607 861.03959821429 504.08871126607 861.91459821429 504.99496126607 L 906.44584821429 551.44808626607 L 906.44584821429 504.10433626607 L 918.63334821429 504.10433626607 L 918.63334821429 566.11996126607 Z M 1003.41522321429 543.85433626607 L 964.93084821429 543.85433626607 L 964.93084821429 531.57308626607 L 1003.41522321429 531.57308626607 L 1003.41522321429 543.85433626607 Z M 1008.89959821429 571.32308626607 L 964.93084821429 571.32308626607 C 963.24334821429 571.32308626607 961.39959821429 571.02621126607 959.39959821429 570.43246126607 C 957.39959821429 569.83871126607 955.54803571429 568.86214876607 953.84491071429 567.50277376607 C 952.14178571429 566.14339876607 950.71991071429 564.37777376607 949.57928571429 562.20589876607 C 948.43866071429 560.03402376607 947.86834821429 557.36996126607 947.86834821429 554.21371126607 L 947.86834821429 510.24496126607 C 947.86834821429 509.40121126607 948.02459821429 508.60433626607 948.33709821429 507.85433626607 C 948.64959821429 507.10433626607 949.07928571429 506.44808626607 949.62616071429 505.88558626607 C 950.17303571429 505.32308626607 950.82147321429 504.88558626607 951.57147321429 504.57308626607 C 952.32147321429 504.26058626607 953.13397321429 504.10433626607 954.00897321429 504.10433626607 L 1008.89959821429 504.10433626607 L 1008.89959821429 516.29183626607 L 960.05584821429 516.29183626607 L 960.05584821429 554.21371126607 C 960.05584821429 555.80746126607 960.47772321429 557.02621126607 961.32147321429 557.86996126607 C 962.16522321429 558.71371126607 963.39959821429 559.13558626607 965.02459821429 559.13558626607 L 1008.89959821429 559.13558626607 L 1008.89959821429 571.32308626607 Z M 1100.38459821429 551.54183626607 C 1100.38459821429 553.94808626607 1100.07991071429 556.11214876607 1099.47053571429 558.03402376607 C 1098.86116071429 559.95589876607 1098.05647321429 561.65121126607 1097.05647321429 563.11996126607 C 1096.05647321429 564.58871126607 1094.88459821429 565.83871126607 1093.54084821429 566.86996126607 C 1092.19709821429 567.90121126607 1090.80647321429 568.74496126607 1089.36897321429 569.40121126607 C 1087.93147321429 570.05746126607 1086.47053571429 570.54183626607 1084.98616071429 570.85433626607 C 1083.50178571429 571.16683626607 1082.10334821429 571.32308626607 1080.79084821429 571.32308626607 L 1033.77522321429 571.32308626607 L 1033.77522321429 559.13558626607 L 1080.79084821429 559.13558626607 C 1083.13459821429 559.13558626607 1084.95491071429 558.44808626607 1086.25178571429 557.07308626607 C 1087.54866071429 555.69808626607 1088.19709821429 553.85433626607 1088.19709821429 551.54183626607 C 1088.19709821429 550.41683626607 1088.02522321429 549.38558626607 1087.68147321429 548.44808626607 C 1087.33772321429 547.51058626607 1086.84553571429 546.69808626607 1086.20491071429 546.01058626607 C 1085.56428571429 545.32308626607 1084.78303571429 544.79183626607 1083.86116071429 544.41683626607 C 1082.93928571429 544.04183626607 1081.91584821429 543.85433626607 1080.79084821429 543.85433626607 L 1052.75959821429 543.85433626607 C 1050.79084821429 543.85433626607 1048.66584821429 543.50277376607 1046.38459821429 542.79964876607 C 1044.10334821429 542.09652376607 1041.98616071429 540.96371126607 1040.03303571429 539.40121126607 C 1038.07991071429 537.83871126607 1036.45491071429 535.79183626607 1035.15803571429 533.26058626607 C 1033.86116071429 530.72933626607 1033.21272321429 527.63558626607 1033.21272321429 523.97933626607 C 1033.21272321429 520.32308626607 1033.86116071429 517.23714876607 1035.15803571429 514.72152376607 C 1036.45491071429 512.20589876607 1038.07991071429 510.15902376607 1040.03303571429 508.58089876607 C 1041.98616071429 507.00277376607 1044.10334821429 505.86214876607 1046.38459821429 505.15902376607 C 1048.66584821429 504.45589876607 1050.79084821429 504.10433626607 1052.75959821429 504.10433626607 L 1094.24397321429 504.10433626607 L 1094.24397321429 516.29183626607 L 1052.75959821429 516.29183626607 C 1050.44709821429 516.29183626607 1048.64241071429 516.99496126607 1047.34553571429 518.40121126607 C 1046.04866071429 519.80746126607 1045.40022321429 521.66683626607 1045.40022321429 523.97933626607 C 1045.40022321429 526.32308626607 1046.04866071429 528.17464876607 1047.34553571429 529.53402376607 C 1048.64241071429 530.89339876607 1050.44709821429 531.57308626607 1052.75959821429 531.57308626607 L 1080.79084821429 531.57308626607 L 1080.88459821429 531.57308626607 C 1082.19709821429 531.60433626607 1083.58772321429 531.78402376607 1085.05647321429 532.11214876607 C 1086.52522321429 532.44027376607 1087.98616071429 532.94808626607 1089.43928571429 533.63558626607 C 1090.89241071429 534.32308626607 1092.27522321429 535.19027376607 1093.58772321429 536.23714876607 C 1094.90022321429 537.28402376607 1096.06428571429 538.54183626607 1097.07991071429 540.01058626607 C 1098.09553571429 541.47933626607 1098.90022321429 543.16683626607 1099.49397321429 545.07308626607 C 1100.08772321429 546.97933626607 1100.38459821429 549.13558626607 1100.38459821429 551.54183626607 Z M 1238.96397321429 532.22933626607 C 1238.96397321429 535.01058626607 1238.62022321429 537.49496126607 1237.93272321429 539.68246126607 C 1237.24522321429 541.86996126607 1236.31553571429 543.79964876607 1235.14366071429 545.47152376607 C 1233.97178571429 547.14339876607 1232.62022321429 548.57308626607 1231.08897321429 549.76058626607 C 1229.55772321429 550.94808626607 1227.95616071429 551.91683626607 1226.28428571429 552.66683626607 C 1224.61241071429 553.41683626607 1222.92491071429 553.96371126607 1221.22178571429 554.30746126607 C 1219.51866071429 554.65121126607 1217.91709821429 554.82308626607 1216.41709821429 554.82308626607 L 1188.85459821429 554.82308626607 L 1188.85459821429 542.63558626607 L 1216.41709821429 542.63558626607 C 1217.97959821429 542.51058626607 1219.39366071429 542.19027376607 1220.65928571429 541.67464876607 C 1221.92491071429 541.15902376607 1223.01084821429 540.46371126607 1223.91709821429 539.58871126607 C 1224.82334821429 538.71371126607 1225.52647321429 537.65902376607 1226.02647321429 536.42464876607 C 1226.52647321429 535.19027376607 1226.77647321429 533.79183626607 1226.77647321429 532.22933626607 L 1226.77647321429 526.69808626607 C 1226.62022321429 525.16683626607 1226.29209821429 523.76058626607 1225.79209821429 522.47933626607 C 1225.29209821429 521.19808626607 1224.61241071429 520.10433626607 1223.75303571429 519.19808626607 C 1222.89366071429 518.29183626607 1221.85459821429 517.58089876607 1220.63584821429 517.06527376607 C 1219.41709821429 516.54964876607 1218.01084821429 516.29183626607 1216.41709821429 516.29183626607 L 1188.94834821429 516.29183626607 C 1187.32334821429 516.29183626607 1186.08897321429 516.71371126607 1185.24522321429 517.55746126607 C 1184.40147321429 518.40121126607 1183.97959821429 519.61996126607 1183.97959821429 521.21371126607 L 1183.97959821429 571.32308626607 L 1171.79209821429 571.32308626607 L 1171.79209821429 521.21371126607 C 1171.79209821429 518.08871126607 1172.36241071429 515.43246126607 1173.50303571429 513.24496126607 C 1174.64366071429 511.05746126607 1176.06553571429 509.29183626607 1177.76866071429 507.94808626607 C 1179.47178571429 506.60433626607 1181.32334821429 505.62777376607 1183.32334821429 505.01839876607 C 1185.32334821429 504.40902376607 1187.16709821429 504.10433626607 1188.85459821429 504.10433626607 L 1216.41709821429 504.10433626607 C 1219.16709821429 504.10433626607 1221.63584821429 504.45589876607 1223.82334821429 505.15902376607 C 1226.01084821429 505.86214876607 1227.94053571429 506.79964876607 1229.61241071429 507.97152376607 C 1231.28428571429 509.14339876607 1232.70616071429 510.49496126607 1233.87803571429 512.02621126607 C 1235.04991071429 513.55746126607 1236.01866071429 515.15902376607 1236.78428571429 516.83089876607 C 1237.54991071429 518.50277376607 1238.10459821429 520.19027376607 1238.44834821429 521.89339876607 C 1238.79209821429 523.59652376607 1238.96397321429 525.19808626607 1238.96397321429 526.69808626607 L 1238.96397321429 532.22933626607 Z M 1331.90209821429 526.69808626607 C 1331.90209821429 529.47933626607 1331.55834821429 531.96371126607 1330.87084821429 534.15121126607 C 1330.18334821429 536.33871126607 1329.25366071429 538.26839876607 1328.08178571429 539.94027376607 C 1326.90991071429 541.61214876607 1325.55834821429 543.04183626607 1324.02709821429 544.22933626607 C 1322.49584821429 545.41683626607 1320.89428571429 546.39339876607 1319.22241071429 547.15902376607 C 1317.55053571429 547.92464876607 1315.86303571429 548.47933626607 1314.15991071429 548.82308626607 C 1312.45678571429 549.16683626607 1310.85522321429 549.33871126607 1309.35522321429 549.33871126607 L 1334.80834821429 571.32308626607 L 1315.96459821429 571.32308626607 L 1290.55834821429 549.33871126607 L 1281.79272321429 549.33871126607 L 1281.79272321429 537.15121126607 L 1309.35522321429 537.15121126607 C 1310.88647321429 537.02621126607 1312.28491071429 536.70589876607 1313.55053571429 536.19027376607 C 1314.81616071429 535.67464876607 1315.90991071429 534.97933626607 1316.83178571429 534.10433626607 C 1317.75366071429 533.22933626607 1318.46459821429 532.17464876607 1318.96459821429 530.94027376607 C 1319.46459821429 529.70589876607 1319.71459821429 528.29183626607 1319.71459821429 526.69808626607 L 1319.71459821429 519.01058626607 C 1319.71459821429 518.32308626607 1319.62866071429 517.79964876607 1319.45678571429 517.44027376607 C 1319.28491071429 517.08089876607 1319.06616071429 516.81527376607 1318.80053571429 516.64339876607 C 1318.53491071429 516.47152376607 1318.25366071429 516.36996126607 1317.95678571429 516.33871126607 C 1317.65991071429 516.30746126607 1317.38647321429 516.29183626607 1317.13647321429 516.29183626607 L 1276.91772321429 516.29183626607 L 1276.91772321429 571.32308626607 L 1264.73022321429 571.32308626607 L 1264.73022321429 510.24496126607 C 1264.73022321429 509.40121126607 1264.88647321429 508.60433626607 1265.19897321429 507.85433626607 C 1265.51147321429 507.10433626607 1265.94116071429 506.44808626607 1266.48803571429 505.88558626607 C 1267.03491071429 505.32308626607 1267.68334821429 504.88558626607 1268.43334821429 504.57308626607 C 1269.18334821429 504.26058626607 1269.99584821429 504.10433626607 1270.87084821429 504.10433626607 L 1317.13647321429 504.10433626607 C 1319.85522321429 504.10433626607 1322.15209821429 504.59652376607 1324.02709821429 505.58089876607 C 1325.90209821429 506.56527376607 1327.42553571429 507.79964876607 1328.59741071429 509.28402376607 C 1329.76928571429 510.76839876607 1330.61303571429 512.36996126607 1331.12866071429 514.08871126607 C 1331.64428571429 515.80746126607 1331.90209821429 517.41683626607 1331.90209821429 518.91683626607 L 1331.90209821429 526.69808626607 Z M 1430.04334821429 544.13558626607 C 1430.04334821429 548.22933626607 1429.34022321429 551.99496126607 1427.93397321429 555.43246126607 C 1426.52772321429 558.86996126607 1424.57459821429 561.83871126607 1422.07459821429 564.33871126607 C 1419.57459821429 566.83871126607 1416.61366071429 568.78402376607 1413.19178571429 570.17464876607 C 1409.76991071429 571.56527376607 1406.04334821429 572.26058626607 1402.01209821429 572.26058626607 L 1385.51209821429 572.26058626607 C 1381.48084821429 572.26058626607 1377.74647321429 571.56527376607 1374.30897321429 570.17464876607 C 1370.87147321429 568.78402376607 1367.90272321429 566.83871126607 1365.40272321429 564.33871126607 C 1362.90272321429 561.83871126607 1360.94178571429 558.86996126607 1359.51991071429 555.43246126607 C 1358.09803571429 551.99496126607 1357.38709821429 548.22933626607 1357.38709821429 544.13558626607 L 1357.38709821429 531.29183626607 C 1357.38709821429 527.22933626607 1358.09803571429 523.47152376607 1359.51991071429 520.01839876607 C 1360.94178571429 516.56527376607 1362.90272321429 513.59652376607 1365.40272321429 511.11214876607 C 1367.90272321429 508.62777376607 1370.87147321429 506.68246126607 1374.30897321429 505.27621126607 C 1377.74647321429 503.86996126607 1381.48084821429 503.16683626607 1385.51209821429 503.16683626607 L 1402.01209821429 503.16683626607 C 1406.04334821429 503.16683626607 1409.76991071429 503.86996126607 1413.19178571429 505.27621126607 C 1416.61366071429 506.68246126607 1419.57459821429 508.62777376607 1422.07459821429 511.11214876607 C 1424.57459821429 513.59652376607 1426.52772321429 516.56527376607 1427.93397321429 520.01839876607 C 1429.34022321429 523.47152376607 1430.04334821429 527.22933626607 1430.04334821429 531.29183626607 L 1430.04334821429 544.13558626607 Z M 1417.85584821429 531.29183626607 C 1417.85584821429 528.88558626607 1417.47303571429 526.70589876607 1416.70741071429 524.75277376607 C 1415.94178571429 522.79964876607 1414.86366071429 521.12777376607 1413.47303571429 519.73714876607 C 1412.08241071429 518.34652376607 1410.41053571429 517.26839876607 1408.45741071429 516.50277376607 C 1406.50428571429 515.73714876607 1404.35584821429 515.35433626607 1402.01209821429 515.35433626607 L 1385.51209821429 515.35433626607 C 1383.13709821429 515.35433626607 1380.97303571429 515.73714876607 1379.01991071429 516.50277376607 C 1377.06678571429 517.26839876607 1375.38709821429 518.34652376607 1373.98084821429 519.73714876607 C 1372.57459821429 521.12777376607 1371.48866071429 522.79964876607 1370.72303571429 524.75277376607 C 1369.95741071429 526.70589876607 1369.57459821429 528.88558626607 1369.57459821429 531.29183626607 L 1369.57459821429 544.13558626607 C 1369.57459821429 546.54183626607 1369.95741071429 548.72152376607 1370.72303571429 550.67464876607 C 1371.48866071429 552.62777376607 1372.57459821429 554.29964876607 1373.98084821429 555.69027376607 C 1375.38709821429 557.08089876607 1377.06678571429 558.15902376607 1379.01991071429 558.92464876607 C 1380.97303571429 559.69027376607 1383.13709821429 560.07308626607 1385.51209821429 560.07308626607 L 1401.91834821429 560.07308626607 C 1404.29334821429 560.07308626607 1406.45741071429 559.69027376607 1408.41053571429 558.92464876607 C 1410.36366071429 558.15902376607 1412.04334821429 557.08089876607 1413.44959821429 555.69027376607 C 1414.85584821429 554.29964876607 1415.94178571429 552.62777376607 1416.70741071429 550.67464876607 C 1417.47303571429 548.72152376607 1417.85584821429 546.54183626607 1417.85584821429 544.13558626607 L 1417.85584821429 531.29183626607 Z"/></svg>